<mxfile host="app.diagrams.net" modified="2023-09-08T09:23:18.149Z" agent="Mozilla/5.0 (Windows NT 10.0; Win64; x64) AppleWebKit/537.36 (KHTML, like Gecko) Chrome/116.0.0.0 Safari/537.36" etag="wtgQOlWkFxKea0GsXoMw" version="21.7.2" type="device">
  <diagram name="Page-1" id="L9vxpuiMK_tUMhYLU7mL">
    <mxGraphModel dx="1518" dy="688" grid="1" gridSize="10" guides="1" tooltips="1" connect="1" arrows="1" fold="1" page="1" pageScale="1" pageWidth="850" pageHeight="1100" math="0" shadow="0">
      <root>
        <mxCell id="0" />
        <mxCell id="1" parent="0" />
        <mxCell id="lmYf1M-hj4zmG5BWKXrS-1" value="Category" style="rounded=0;whiteSpace=wrap;html=1;" parent="1" vertex="1">
          <mxGeometry x="585" y="392.5" width="120" height="60" as="geometry" />
        </mxCell>
        <mxCell id="lmYf1M-hj4zmG5BWKXrS-2" value="Post" style="rounded=0;whiteSpace=wrap;html=1;" parent="1" vertex="1">
          <mxGeometry x="144.5" y="392.5" width="120" height="60" as="geometry" />
        </mxCell>
        <mxCell id="lmYf1M-hj4zmG5BWKXrS-3" value="Tag" style="rounded=0;whiteSpace=wrap;html=1;" parent="1" vertex="1">
          <mxGeometry x="145.25" y="710" width="120" height="60" as="geometry" />
        </mxCell>
        <mxCell id="lmYf1M-hj4zmG5BWKXrS-4" value="Comment" style="rounded=0;whiteSpace=wrap;html=1;" parent="1" vertex="1">
          <mxGeometry x="604.75" y="710" width="120" height="60" as="geometry" />
        </mxCell>
        <mxCell id="lmYf1M-hj4zmG5BWKXrS-5" value="&lt;b style=&quot;font-weight:normal;&quot; id=&quot;docs-internal-guid-73b793bf-7fff-7145-c773-e9d175866d5f&quot;&gt;&lt;ol style=&quot;margin-top:0;margin-bottom:0;padding-inline-start:48px;&quot;&gt;&lt;li dir=&quot;ltr&quot; style=&quot;list-style-type: lower-alpha; font-size: 11pt; font-family: Arial, sans-serif; color: rgb(0, 0, 0); background-color: transparent; font-weight: 400; font-style: normal; font-variant: normal; text-decoration: none; vertical-align: baseline; margin-left: 36pt;&quot; aria-level=&quot;2&quot;&gt;&lt;p dir=&quot;ltr&quot; style=&quot;line-height:1.38;margin-top:0pt;margin-bottom:0pt;&quot; role=&quot;presentation&quot;&gt;&lt;span style=&quot;font-size: 11pt; font-family: Arial, sans-serif; color: rgb(0, 0, 0); background-color: transparent; font-weight: 400; font-style: normal; font-variant: normal; text-decoration: none; vertical-align: baseline;&quot;&gt;Set up a database for blog posts, categories, tags, and user comments.&lt;/span&gt;&lt;/p&gt;&lt;/li&gt;&lt;li dir=&quot;ltr&quot; style=&quot;list-style-type: lower-alpha; font-size: 11pt; font-family: Arial, sans-serif; color: rgb(0, 0, 0); background-color: transparent; font-weight: 400; font-style: normal; font-variant: normal; text-decoration: none; vertical-align: baseline; margin-left: 36pt;&quot; aria-level=&quot;2&quot;&gt;&lt;p dir=&quot;ltr&quot; style=&quot;line-height:1.38;margin-top:0pt;margin-bottom:0pt;&quot; role=&quot;presentation&quot;&gt;&lt;span style=&quot;font-size: 11pt; font-family: Arial, sans-serif; color: rgb(0, 0, 0); background-color: transparent; font-weight: 400; font-style: normal; font-variant: normal; text-decoration: none; vertical-align: baseline;&quot;&gt;Implement SQL queries to display popular blog posts, manage comments, and categorize posts.&lt;/span&gt;&lt;/p&gt;&lt;/li&gt;&lt;/ol&gt;&lt;/b&gt;" style="text;whiteSpace=wrap;html=1;" parent="1" vertex="1">
          <mxGeometry x="20" y="10" width="420.5" height="100" as="geometry" />
        </mxCell>
        <mxCell id="lmYf1M-hj4zmG5BWKXrS-6" value="" style="endArrow=none;html=1;rounded=0;exitX=0.25;exitY=0;exitDx=0;exitDy=0;entryX=0.5;entryY=1;entryDx=0;entryDy=0;" parent="1" source="lmYf1M-hj4zmG5BWKXrS-2" target="lmYf1M-hj4zmG5BWKXrS-23" edge="1">
          <mxGeometry width="50" height="50" relative="1" as="geometry">
            <mxPoint x="439.5" y="482.5" as="sourcePoint" />
            <mxPoint x="109.5" y="352.5" as="targetPoint" />
          </mxGeometry>
        </mxCell>
        <mxCell id="lmYf1M-hj4zmG5BWKXrS-7" value="" style="endArrow=none;html=1;rounded=0;exitX=0.75;exitY=0;exitDx=0;exitDy=0;entryX=0.5;entryY=1;entryDx=0;entryDy=0;" parent="1" source="lmYf1M-hj4zmG5BWKXrS-2" target="lmYf1M-hj4zmG5BWKXrS-24" edge="1">
          <mxGeometry width="50" height="50" relative="1" as="geometry">
            <mxPoint x="419.5" y="472.5" as="sourcePoint" />
            <mxPoint x="335.5" y="360" as="targetPoint" />
          </mxGeometry>
        </mxCell>
        <mxCell id="lmYf1M-hj4zmG5BWKXrS-8" value="" style="endArrow=none;html=1;rounded=0;entryX=0.5;entryY=1;entryDx=0;entryDy=0;exitX=0.25;exitY=0;exitDx=0;exitDy=0;" parent="1" source="lmYf1M-hj4zmG5BWKXrS-1" target="lmYf1M-hj4zmG5BWKXrS-26" edge="1">
          <mxGeometry width="50" height="50" relative="1" as="geometry">
            <mxPoint x="440" y="512.5" as="sourcePoint" />
            <mxPoint x="545" y="335" as="targetPoint" />
          </mxGeometry>
        </mxCell>
        <mxCell id="lmYf1M-hj4zmG5BWKXrS-9" value="" style="endArrow=none;html=1;rounded=0;entryX=0.5;entryY=1;entryDx=0;entryDy=0;exitX=0.75;exitY=0;exitDx=0;exitDy=0;" parent="1" source="lmYf1M-hj4zmG5BWKXrS-1" target="lmYf1M-hj4zmG5BWKXrS-27" edge="1">
          <mxGeometry width="50" height="50" relative="1" as="geometry">
            <mxPoint x="410" y="462.5" as="sourcePoint" />
            <mxPoint x="759.5" y="340" as="targetPoint" />
          </mxGeometry>
        </mxCell>
        <mxCell id="lmYf1M-hj4zmG5BWKXrS-10" value="" style="endArrow=none;html=1;rounded=0;exitX=0.5;exitY=0;exitDx=0;exitDy=0;entryX=0.75;entryY=1;entryDx=0;entryDy=0;" parent="1" source="lmYf1M-hj4zmG5BWKXrS-25" target="lmYf1M-hj4zmG5BWKXrS-3" edge="1">
          <mxGeometry width="50" height="50" relative="1" as="geometry">
            <mxPoint x="100.25" y="820" as="sourcePoint" />
            <mxPoint x="190.25" y="810" as="targetPoint" />
          </mxGeometry>
        </mxCell>
        <mxCell id="lmYf1M-hj4zmG5BWKXrS-11" value="" style="endArrow=none;html=1;rounded=0;exitX=0.5;exitY=0;exitDx=0;exitDy=0;entryX=0.25;entryY=1;entryDx=0;entryDy=0;" parent="1" source="lmYf1M-hj4zmG5BWKXrS-28" target="lmYf1M-hj4zmG5BWKXrS-4" edge="1">
          <mxGeometry width="50" height="50" relative="1" as="geometry">
            <mxPoint x="549.75" y="795" as="sourcePoint" />
            <mxPoint x="509.75" y="700" as="targetPoint" />
          </mxGeometry>
        </mxCell>
        <mxCell id="lmYf1M-hj4zmG5BWKXrS-12" value="Tag_ID" style="ellipse;whiteSpace=wrap;html=1;" parent="1" vertex="1">
          <mxGeometry x="87.25" y="840" width="92.75" height="56.25" as="geometry" />
        </mxCell>
        <mxCell id="lmYf1M-hj4zmG5BWKXrS-13" value="" style="endArrow=none;html=1;rounded=0;exitX=0.5;exitY=0;exitDx=0;exitDy=0;entryX=0.25;entryY=1;entryDx=0;entryDy=0;" parent="1" source="lmYf1M-hj4zmG5BWKXrS-12" target="lmYf1M-hj4zmG5BWKXrS-3" edge="1">
          <mxGeometry width="50" height="50" relative="1" as="geometry">
            <mxPoint x="410.25" y="740" as="sourcePoint" />
            <mxPoint x="130" y="790" as="targetPoint" />
            <Array as="points" />
          </mxGeometry>
        </mxCell>
        <mxCell id="lmYf1M-hj4zmG5BWKXrS-14" value="" style="endArrow=none;html=1;rounded=0;entryX=0.5;entryY=0;entryDx=0;entryDy=0;exitX=0.75;exitY=1;exitDx=0;exitDy=0;" parent="1" source="lmYf1M-hj4zmG5BWKXrS-4" target="lmYf1M-hj4zmG5BWKXrS-29" edge="1">
          <mxGeometry width="50" height="50" relative="1" as="geometry">
            <mxPoint x="369.75" y="810" as="sourcePoint" />
            <mxPoint x="769.75" y="810" as="targetPoint" />
          </mxGeometry>
        </mxCell>
        <mxCell id="lmYf1M-hj4zmG5BWKXrS-15" value="" style="edgeStyle=entityRelationEdgeStyle;fontSize=12;html=1;endArrow=ERmany;startArrow=ERmany;rounded=0;entryX=1;entryY=0.5;entryDx=0;entryDy=0;exitX=1;exitY=0.25;exitDx=0;exitDy=0;" parent="1" source="lmYf1M-hj4zmG5BWKXrS-3" edge="1">
          <mxGeometry width="100" height="100" relative="1" as="geometry">
            <mxPoint x="165" y="670.5" as="sourcePoint" />
            <mxPoint x="144.5" y="413" as="targetPoint" />
            <Array as="points">
              <mxPoint x="120" y="610" />
              <mxPoint x="160" y="610" />
              <mxPoint x="115" y="620" />
              <mxPoint x="150" y="580" />
              <mxPoint x="150" y="610" />
            </Array>
          </mxGeometry>
        </mxCell>
        <mxCell id="lmYf1M-hj4zmG5BWKXrS-16" value="n : m" style="text;strokeColor=none;align=center;fillColor=none;html=1;verticalAlign=middle;whiteSpace=wrap;rounded=0;" parent="1" vertex="1">
          <mxGeometry x="119.5" y="570" width="60" height="30" as="geometry" />
        </mxCell>
        <mxCell id="lmYf1M-hj4zmG5BWKXrS-17" value="" style="edgeStyle=entityRelationEdgeStyle;fontSize=12;html=1;endArrow=ERoneToMany;rounded=0;entryX=1;entryY=0.5;entryDx=0;entryDy=0;exitX=0;exitY=0.5;exitDx=0;exitDy=0;" parent="1" source="lmYf1M-hj4zmG5BWKXrS-1" target="lmYf1M-hj4zmG5BWKXrS-2" edge="1">
          <mxGeometry width="100" height="100" relative="1" as="geometry">
            <mxPoint x="330" y="550" as="sourcePoint" />
            <mxPoint x="430" y="450" as="targetPoint" />
          </mxGeometry>
        </mxCell>
        <mxCell id="lmYf1M-hj4zmG5BWKXrS-18" value="n : 1" style="text;html=1;align=center;verticalAlign=middle;resizable=0;points=[];autosize=1;strokeColor=none;fillColor=none;" parent="1" vertex="1">
          <mxGeometry x="415" y="388" width="50" height="30" as="geometry" />
        </mxCell>
        <mxCell id="lmYf1M-hj4zmG5BWKXrS-19" value="" style="edgeStyle=entityRelationEdgeStyle;fontSize=12;html=1;endArrow=ERmany;startArrow=ERmany;rounded=0;entryX=0.5;entryY=1;entryDx=0;entryDy=0;exitX=0.25;exitY=0;exitDx=0;exitDy=0;" parent="1" source="lmYf1M-hj4zmG5BWKXrS-4" target="lmYf1M-hj4zmG5BWKXrS-2" edge="1">
          <mxGeometry width="100" height="100" relative="1" as="geometry">
            <mxPoint x="340" y="630" as="sourcePoint" />
            <mxPoint x="440" y="530" as="targetPoint" />
          </mxGeometry>
        </mxCell>
        <mxCell id="lmYf1M-hj4zmG5BWKXrS-20" value="n : m" style="text;html=1;align=center;verticalAlign=middle;resizable=0;points=[];autosize=1;strokeColor=none;fillColor=none;" parent="1" vertex="1">
          <mxGeometry x="355" y="558" width="50" height="30" as="geometry" />
        </mxCell>
        <mxCell id="lmYf1M-hj4zmG5BWKXrS-21" value="Relatons :&lt;br&gt;&lt;br&gt;-&amp;gt; n posts m comments&lt;br&gt;-&amp;gt; 1 category n Posts&lt;br&gt;-&amp;gt; n posts m tags&lt;br&gt;-&amp;gt; n comments m tags&lt;br&gt;-&amp;gt;&amp;nbsp;" style="text;html=1;align=center;verticalAlign=middle;resizable=0;points=[];autosize=1;strokeColor=none;fillColor=none;" parent="1" vertex="1">
          <mxGeometry x="580" y="10" width="150" height="110" as="geometry" />
        </mxCell>
        <mxCell id="lmYf1M-hj4zmG5BWKXrS-22" value="" style="edgeStyle=entityRelationEdgeStyle;fontSize=12;html=1;endArrow=ERmany;startArrow=ERmany;rounded=0;entryX=0;entryY=0.5;entryDx=0;entryDy=0;exitX=1;exitY=0.5;exitDx=0;exitDy=0;" parent="1" source="lmYf1M-hj4zmG5BWKXrS-3" target="lmYf1M-hj4zmG5BWKXrS-4" edge="1">
          <mxGeometry width="100" height="100" relative="1" as="geometry">
            <mxPoint x="379.75" y="800" as="sourcePoint" />
            <mxPoint x="479.75" y="700" as="targetPoint" />
          </mxGeometry>
        </mxCell>
        <mxCell id="lmYf1M-hj4zmG5BWKXrS-23" value="Post_ID" style="ellipse;whiteSpace=wrap;html=1;" parent="1" vertex="1">
          <mxGeometry x="80" y="270" width="99.5" height="60" as="geometry" />
        </mxCell>
        <mxCell id="lmYf1M-hj4zmG5BWKXrS-24" value="Post_Type" style="ellipse;whiteSpace=wrap;html=1;" parent="1" vertex="1">
          <mxGeometry x="229.5" y="270" width="99.5" height="60" as="geometry" />
        </mxCell>
        <mxCell id="lmYf1M-hj4zmG5BWKXrS-25" value="Tag_type" style="ellipse;whiteSpace=wrap;html=1;" parent="1" vertex="1">
          <mxGeometry x="229.5" y="840" width="99.5" height="60" as="geometry" />
        </mxCell>
        <mxCell id="lmYf1M-hj4zmG5BWKXrS-26" value="Category_ID" style="ellipse;whiteSpace=wrap;html=1;" parent="1" vertex="1">
          <mxGeometry x="525" y="270" width="99.5" height="60" as="geometry" />
        </mxCell>
        <mxCell id="lmYf1M-hj4zmG5BWKXrS-27" value="Category_Type" style="ellipse;whiteSpace=wrap;html=1;" parent="1" vertex="1">
          <mxGeometry x="679.5" y="270" width="99.5" height="60" as="geometry" />
        </mxCell>
        <mxCell id="lmYf1M-hj4zmG5BWKXrS-28" value="Comment_ID" style="ellipse;whiteSpace=wrap;html=1;" parent="1" vertex="1">
          <mxGeometry x="529.75" y="840" width="99.5" height="60" as="geometry" />
        </mxCell>
        <mxCell id="lmYf1M-hj4zmG5BWKXrS-29" value="Comment_Type" style="ellipse;whiteSpace=wrap;html=1;" parent="1" vertex="1">
          <mxGeometry x="690" y="840" width="99.5" height="60" as="geometry" />
        </mxCell>
        <mxCell id="lmYf1M-hj4zmG5BWKXrS-30" value="n : m" style="text;html=1;align=center;verticalAlign=middle;resizable=0;points=[];autosize=1;strokeColor=none;fillColor=none;" parent="1" vertex="1">
          <mxGeometry x="395" y="738" width="50" height="30" as="geometry" />
        </mxCell>
      </root>
    </mxGraphModel>
  </diagram>
</mxfile>
